<svg width="255" height="255" viewBox="0 0 255 255" fill="none" xmlns="http://www.w3.org/2000/svg">
<rect width="255" height="255" fill="#2C3440"/>
<path d="M47.1617 140.54C45.6737 140.54 44.3417 140.216 43.1657 139.568C42.5897 139.256 42.1217 138.92 41.7617 138.56C41.3777 139.088 40.9577 139.496 40.5017 139.784C40.2857 139.928 40.0457 140.06 39.7817 140.18H38.8817V134.06H40.3217C40.6337 135.068 41.0897 136.004 41.6897 136.868C42.9617 138.716 44.5457 139.64 46.4417 139.64C47.4497 139.64 48.2057 139.4 48.7097 138.92C49.2377 138.416 49.5017 137.696 49.5017 136.76C49.5017 135.968 49.1417 135.308 48.4217 134.78C47.7257 134.228 46.6217 133.556 45.1097 132.764C43.8137 132.116 42.7577 131.54 41.9417 131.036C41.1497 130.508 40.4657 129.86 39.8897 129.092C39.3377 128.3 39.0617 127.376 39.0617 126.32C39.0617 124.88 39.6737 123.716 40.8977 122.828C42.1457 121.916 44.0537 121.46 46.6217 121.46C47.8937 121.46 49.0697 121.796 50.1497 122.468C50.6777 122.78 51.1337 123.104 51.5177 123.44C51.8297 123.008 52.2497 122.6 52.7777 122.216C53.1857 121.976 53.4257 121.844 53.4977 121.82H54.3977V127.94H52.9577C52.5977 126.908 52.1537 125.984 51.6257 125.168C50.4257 123.296 48.9977 122.36 47.3417 122.36C46.6937 122.36 46.1417 122.6 45.6857 123.08C45.2297 123.56 45.0017 124.16 45.0017 124.88C45.0017 125.792 45.3857 126.56 46.1537 127.184C46.9217 127.784 48.0857 128.48 49.6457 129.272C50.9177 129.92 51.9257 130.496 52.6697 131C53.4377 131.48 54.0857 132.08 54.6137 132.8C55.1657 133.52 55.4417 134.36 55.4417 135.32C55.4417 138.8 52.6817 140.54 47.1617 140.54ZM58.1431 139.46L60.3031 138.92V123.08L58.1431 122.54V122H61.3831C62.7991 122 63.9151 122.456 64.7311 123.368C65.0431 123.728 65.3071 124.172 65.5231 124.7C65.8831 124.028 66.2671 123.488 66.6751 123.08C67.7551 122 68.9911 121.46 70.3831 121.46C71.7751 121.46 72.9991 121.772 74.0551 122.396C75.1111 122.996 75.9271 123.824 76.5031 124.88C76.8631 124.184 77.2471 123.62 77.6551 123.188C78.7591 122.036 79.9951 121.46 81.3631 121.46C82.6351 121.46 83.7751 121.724 84.7831 122.252C85.8151 122.78 86.6071 123.5 87.1591 124.412C87.7351 125.324 88.0231 126.32 88.0231 127.4V138.92L90.1831 139.46V140H85.5031C83.3431 140 82.2631 138.92 82.2631 136.76V127.4C82.2631 125.84 82.0231 124.676 81.5431 123.908C81.0631 123.116 80.5231 122.72 79.9231 122.72C79.2271 122.72 78.5191 123.2 77.7991 124.16C77.5111 124.616 77.2591 125.096 77.0431 125.6V138.92L79.2031 139.46V140H69.1231V139.46L71.2831 138.92V127.4C71.2831 125.84 71.0431 124.676 70.5631 123.908C70.0831 123.116 69.5431 122.72 68.9431 122.72C68.2471 122.72 67.5391 123.2 66.8191 124.16C66.5311 124.616 66.2791 125.096 66.0631 125.6V138.92L68.2231 139.46V140H58.1431V139.46ZM99.3702 140.54C97.2342 140.54 95.5902 140.084 94.4382 139.172C93.2862 138.26 92.7102 137.096 92.7102 135.68C92.7102 134.744 92.9142 133.82 93.3222 132.908C93.4902 132.476 93.7062 132.08 93.9702 131.72C94.9542 131.48 96.0222 131.264 97.1742 131.072C99.7662 130.64 102.058 130.376 104.05 130.28V129.2C104.05 126.536 103.726 124.7 103.078 123.692C102.43 122.684 101.434 122.18 100.09 122.18C99.5862 122.18 99.1542 122.24 98.7942 122.36L98.2902 122.54V127.94L97.8222 128.048C97.4382 128.096 97.1142 128.12 96.8502 128.12C96.0342 128.12 95.3742 127.88 94.8702 127.4C94.3902 126.896 94.1502 126.236 94.1502 125.42C94.1502 124.316 94.7022 123.38 95.8062 122.612C96.9342 121.844 98.6022 121.46 100.81 121.46C102.682 121.46 104.29 121.796 105.634 122.468C107.002 123.116 108.034 124.028 108.73 125.204C109.45 126.356 109.81 127.688 109.81 129.2V138.92L111.97 139.46V140H108.73C107.29 140 106.174 139.556 105.382 138.668C105.046 138.308 104.782 137.852 104.59 137.3C104.254 137.9 103.858 138.44 103.402 138.92C102.322 140 100.978 140.54 99.3702 140.54ZM100.81 139.28C101.698 139.28 102.502 138.8 103.222 137.84C103.486 137.48 103.762 137 104.05 136.4V131.18C102.946 131.18 101.89 131.24 100.882 131.36C100.138 131.456 99.6342 131.516 99.3702 131.54C99.2502 131.804 99.1302 132.164 99.0102 132.62C98.7702 133.532 98.6502 134.432 98.6502 135.32C98.6502 136.664 98.8542 137.66 99.2622 138.308C99.6702 138.956 100.186 139.28 100.81 139.28ZM114.147 139.46L116.307 138.92V115.88L114.147 115.34V114.8H118.827C120.987 114.8 122.067 115.88 122.067 118.04V138.92L124.227 139.46V140H114.147V139.46ZM126.381 139.46L128.541 138.92V115.88L126.381 115.34V114.8H131.061C133.221 114.8 134.301 115.88 134.301 118.04V138.92L136.461 139.46V140H126.381V139.46ZM158.066 140.54C156.482 140.54 155.102 140.252 153.926 139.676C152.774 139.1 151.886 138.308 151.262 137.3C150.638 136.292 150.326 135.152 150.326 133.88V122.9H147.806V122H150.326V120.2C150.326 118.04 151.406 116.96 153.566 116.96H156.086V122H161.126V122.9H156.086V133.88C156.086 136.088 156.314 137.6 156.77 138.416C157.226 139.232 157.898 139.64 158.786 139.64C159.65 139.64 160.406 139.22 161.054 138.38C161.702 137.54 162.026 136.4 162.026 134.96H162.926C162.926 136.736 162.482 138.116 161.594 139.1C160.706 140.06 159.53 140.54 158.066 140.54ZM171.581 140.54C169.445 140.54 167.801 140.084 166.649 139.172C165.497 138.26 164.921 137.096 164.921 135.68C164.921 134.744 165.125 133.82 165.533 132.908C165.701 132.476 165.917 132.08 166.181 131.72C167.165 131.48 168.233 131.264 169.385 131.072C171.977 130.64 174.269 130.376 176.261 130.28V129.2C176.261 126.536 175.937 124.7 175.289 123.692C174.641 122.684 173.645 122.18 172.301 122.18C171.797 122.18 171.365 122.24 171.005 122.36L170.501 122.54V127.94L170.033 128.048C169.649 128.096 169.325 128.12 169.061 128.12C168.245 128.12 167.585 127.88 167.081 127.4C166.601 126.896 166.361 126.236 166.361 125.42C166.361 124.316 166.913 123.38 168.017 122.612C169.145 121.844 170.813 121.46 173.021 121.46C174.893 121.46 176.501 121.796 177.845 122.468C179.213 123.116 180.245 124.028 180.941 125.204C181.661 126.356 182.021 127.688 182.021 129.2V138.92L184.181 139.46V140H180.941C179.501 140 178.385 139.556 177.593 138.668C177.257 138.308 176.993 137.852 176.801 137.3C176.465 137.9 176.069 138.44 175.613 138.92C174.533 140 173.189 140.54 171.581 140.54ZM173.021 139.28C173.909 139.28 174.713 138.8 175.433 137.84C175.697 137.48 175.973 137 176.261 136.4V131.18C175.157 131.18 174.101 131.24 173.093 131.36C172.349 131.456 171.845 131.516 171.581 131.54C171.461 131.804 171.341 132.164 171.221 132.62C170.981 133.532 170.861 134.432 170.861 135.32C170.861 136.664 171.065 137.66 171.473 138.308C171.881 138.956 172.397 139.28 173.021 139.28ZM186.358 139.46L188.518 138.92V115.88L186.358 115.34V114.8H191.038C193.198 114.8 194.278 115.88 194.278 118.04V138.92L196.438 139.46V140H186.358V139.46ZM198.592 139.46L200.752 138.92V115.88L198.592 115.34V114.8H203.272C205.432 114.8 206.512 115.88 206.512 118.04V130.64L213.172 123.62L210.472 122.54V122H217.312V122.54L214.432 123.62L210.292 127.94L217.312 138.92L219.112 139.46V140H214.432C213.28 140 212.344 139.748 211.624 139.244C210.904 138.74 210.22 137.972 209.572 136.94L206.512 132.08V138.92L208.672 139.46V140H198.592V139.46Z" fill="#F6F3EF"/>
</svg>
